<svg xmlns="http://www.w3.org/2000/svg" xmlns:xlink="http://www.w3.org/1999/xlink" width="500" zoomAndPan="magnify" viewBox="0 0 375 187.499995" height="250" preserveAspectRatio="xMidYMid meet" version="1.0"><defs><g/><clipPath id="852d95157b"><path d="M 0.5 0 L 374.5 0 L 374.5 187 L 0.5 187 Z M 0.5 0 " clip-rule="nonzero"/></clipPath><clipPath id="895c20550a"><rect x="0" width="100" y="0" height="77"/></clipPath><clipPath id="6e45f08d2a"><rect x="0" width="100" y="0" height="77"/></clipPath><clipPath id="64b6b72d77"><rect x="0" width="100" y="0" height="77"/></clipPath><clipPath id="ca77af79a7"><rect x="0" width="84" y="0" height="117"/></clipPath><clipPath id="8e757986bf"><rect x="0" width="258" y="0" height="23"/></clipPath><clipPath id="91fe539295"><path d="M 0.605469 16 L 55 16 L 55 75 L 0.605469 75 Z M 0.605469 16 " clip-rule="nonzero"/></clipPath><clipPath id="9bcc32ae29"><rect x="0" width="59" y="0" height="93"/></clipPath><clipPath id="9ea8b94719"><path d="M 0.207031 16 L 44 16 L 44 75 L 0.207031 75 Z M 0.207031 16 " clip-rule="nonzero"/></clipPath><clipPath id="2e58b1ff98"><rect x="0" width="49" y="0" height="93"/></clipPath><clipPath id="3286e0f869"><rect x="0" width="20" y="0" height="93"/></clipPath></defs><g clip-path="url(#852d95157b)"><path fill="#ffffff" d="M 0.5 0 L 374.5 0 L 374.5 187 L 0.5 187 Z M 0.5 0 " fill-opacity="1" fill-rule="nonzero"/><path fill="#ffffff" d="M 0.5 0 L 374.5 0 L 374.5 187 L 0.5 187 Z M 0.5 0 " fill-opacity="1" fill-rule="nonzero"/></g><g transform="matrix(1, 0, 0, 1, 128, 16)"><g clip-path="url(#895c20550a)"><g fill="#0081cc" fill-opacity="1"><g transform="translate(4.078983, 56.953792)"><g><path d="M -2 -53.984375 L 94.109375 -53.984375 L 60.203125 3.453125 C 56.972656 -2.023438 53.753906 -7.40625 50.546875 -12.6875 C 47.347656 -17.96875 44.160156 -23.320312 40.984375 -28.75 L 39.296875 -27.140625 L 44.75 -17.921875 L 31.90625 3.453125 Z M -2 -53.984375 "/></g></g></g></g></g><g transform="matrix(1, 0, 0, 1, 135, 16)"><g clip-path="url(#6e45f08d2a)"><g fill="#004aad" fill-opacity="1"><g transform="translate(4.029, 56.958907)"><g><path d="M -2 -53.984375 L 94.109375 -53.984375 L 60.203125 3.453125 C 56.972656 -2.023438 53.753906 -7.40625 50.546875 -12.6875 C 47.347656 -17.96875 44.160156 -23.320312 40.984375 -28.75 L 39.296875 -27.140625 L 44.75 -17.921875 L 31.90625 3.453125 Z M -2 -53.984375 "/></g></g></g></g></g><g transform="matrix(1, 0, 0, 1, 142, 16)"><g clip-path="url(#64b6b72d77)"><g fill="#000000" fill-opacity="1"><g transform="translate(4.220282, 56.958907)"><g><path d="M -2 -53.984375 L 94.109375 -53.984375 L 60.203125 3.453125 C 56.972656 -2.023438 53.753906 -7.40625 50.546875 -12.6875 C 47.347656 -17.96875 44.160156 -23.320312 40.984375 -28.75 L 39.296875 -27.140625 L 44.75 -17.921875 L 31.90625 3.453125 Z M -2 -53.984375 "/></g></g></g></g></g><g transform="matrix(1, 0, 0, 1, 123, 61)"><g clip-path="url(#ca77af79a7)"><g fill="#000000" fill-opacity="1"><g transform="translate(0.244105, 78.675033)"><g><path d="M 11.203125 -41.5 L 11.203125 -13.9375 C 11.203125 -10.726562 12.03125 -8.375 13.6875 -6.875 C 15.351562 -5.382812 17.265625 -4.640625 19.421875 -4.640625 C 20.742188 -4.640625 22.066406 -4.898438 23.390625 -5.421875 C 24.722656 -5.953125 25.914062 -6.71875 26.96875 -7.71875 C 28.019531 -8.71875 28.875 -9.90625 29.53125 -11.28125 C 30.195312 -12.664062 30.53125 -14.21875 30.53125 -15.9375 L 30.53125 -41.5 L 36.34375 -41.5 L 36.34375 0 L 31.125 0 L 30.53125 -5.3125 C 28.757812 -3.320312 26.878906 -1.84375 24.890625 -0.875 C 22.898438 0.09375 20.828125 0.578125 18.671875 0.578125 C 16.953125 0.578125 15.289062 0.257812 13.6875 -0.375 C 12.082031 -1.007812 10.65625 -1.9375 9.40625 -3.15625 C 8.164062 -4.375 7.1875 -5.878906 6.46875 -7.671875 C 5.75 -9.472656 5.390625 -11.5625 5.390625 -13.9375 L 5.390625 -41.5 Z M 11.203125 -41.5 "/></g></g></g><g fill="#000000" fill-opacity="1"><g transform="translate(41.983073, 78.675033)"><g><path d="M 11.203125 18.25 L 5.390625 18.25 L 5.390625 -41.5 L 10.625 -41.5 L 11.203125 -36.59375 C 12.804688 -38.53125 14.585938 -39.925781 16.546875 -40.78125 C 18.515625 -41.644531 20.492188 -42.078125 22.484375 -42.078125 C 24.253906 -42.078125 25.984375 -41.726562 27.671875 -41.03125 C 29.359375 -40.34375 30.835938 -39.320312 32.109375 -37.96875 C 33.390625 -36.613281 34.414062 -34.96875 35.1875 -33.03125 C 35.957031 -31.09375 36.34375 -28.878906 36.34375 -26.390625 L 36.34375 -15.109375 C 36.34375 -12.617188 35.957031 -10.40625 35.1875 -8.46875 C 34.414062 -6.53125 33.390625 -4.882812 32.109375 -3.53125 C 30.835938 -2.175781 29.359375 -1.148438 27.671875 -0.453125 C 25.984375 0.234375 24.253906 0.578125 22.484375 0.578125 C 20.492188 0.578125 18.515625 0.148438 16.546875 -0.703125 C 14.585938 -1.554688 12.804688 -2.953125 11.203125 -4.890625 Z M 11.203125 -15.84375 C 11.203125 -14.019531 11.492188 -12.398438 12.078125 -10.984375 C 12.660156 -9.578125 13.421875 -8.40625 14.359375 -7.46875 C 15.296875 -6.53125 16.375 -5.820312 17.59375 -5.34375 C 18.8125 -4.875 20.03125 -4.640625 21.25 -4.640625 C 22.40625 -4.640625 23.550781 -4.847656 24.6875 -5.265625 C 25.820312 -5.679688 26.816406 -6.332031 27.671875 -7.21875 C 28.535156 -8.101562 29.226562 -9.195312 29.75 -10.5 C 30.269531 -11.800781 30.53125 -13.335938 30.53125 -15.109375 L 30.53125 -26.390625 C 30.53125 -28.160156 30.269531 -29.691406 29.75 -30.984375 C 29.226562 -32.285156 28.535156 -33.378906 27.671875 -34.265625 C 26.816406 -35.148438 25.820312 -35.800781 24.6875 -36.21875 C 23.550781 -36.632812 22.40625 -36.84375 21.25 -36.84375 C 20.03125 -36.84375 18.8125 -36.609375 17.59375 -36.140625 C 16.375 -35.671875 15.296875 -34.960938 14.359375 -34.015625 C 13.421875 -33.078125 12.660156 -31.898438 12.078125 -30.484375 C 11.492188 -29.078125 11.203125 -27.460938 11.203125 -25.640625 Z M 11.203125 -15.84375 "/></g></g></g></g></g><g transform="matrix(1, 0, 0, 1, 59, 158)"><g clip-path="url(#8e757986bf)"><g fill="#000000" fill-opacity="1"><g transform="translate(0.972227, 14.224915)"><g><path d="M 5.953125 0.109375 C 5.804688 0.109375 5.660156 0.0664062 5.515625 -0.015625 C 5.378906 -0.0976562 5.285156 -0.226562 5.234375 -0.40625 L 2.171875 -9.90625 L 2.171875 0 L 1.09375 0 L 1.09375 -10.3125 C 1.09375 -10.644531 1.195312 -10.894531 1.40625 -11.0625 C 1.613281 -11.226562 1.835938 -11.3125 2.078125 -11.3125 C 2.316406 -11.3125 2.53125 -11.25 2.71875 -11.125 C 2.914062 -11 3.054688 -10.8125 3.140625 -10.5625 L 5.953125 -1.34375 L 8.78125 -10.5625 C 8.863281 -10.8125 9 -11 9.1875 -11.125 C 9.382812 -11.25 9.597656 -11.3125 9.828125 -11.3125 C 10.078125 -11.3125 10.304688 -11.226562 10.515625 -11.0625 C 10.722656 -10.894531 10.828125 -10.644531 10.828125 -10.3125 L 10.828125 0 L 9.734375 0 L 9.734375 -9.90625 L 6.6875 -0.40625 C 6.632812 -0.226562 6.535156 -0.0976562 6.390625 -0.015625 C 6.253906 0.0664062 6.109375 0.109375 5.953125 0.109375 Z M 5.953125 0.109375 "/></g></g></g><g fill="#000000" fill-opacity="1"><g transform="translate(12.890997, 14.224915)"><g><path d="M 5.578125 -0.921875 C 5.273438 -0.554688 4.9375 -0.289062 4.5625 -0.125 C 4.195312 0.03125 3.828125 0.109375 3.453125 0.109375 C 3.117188 0.109375 2.796875 0.046875 2.484375 -0.078125 C 2.171875 -0.210938 1.894531 -0.40625 1.65625 -0.65625 C 1.414062 -0.914062 1.222656 -1.222656 1.078125 -1.578125 C 0.929688 -1.941406 0.859375 -2.359375 0.859375 -2.828125 L 0.859375 -4.953125 C 0.859375 -5.421875 0.929688 -5.832031 1.078125 -6.1875 C 1.222656 -6.550781 1.414062 -6.859375 1.65625 -7.109375 C 1.894531 -7.367188 2.171875 -7.5625 2.484375 -7.6875 C 2.796875 -7.820312 3.117188 -7.890625 3.453125 -7.890625 C 3.828125 -7.890625 4.195312 -7.804688 4.5625 -7.640625 C 4.9375 -7.484375 5.273438 -7.222656 5.578125 -6.859375 L 5.6875 -7.78125 L 6.65625 -7.78125 L 6.65625 0 L 5.671875 0 Z M 5.578125 -4.8125 C 5.578125 -5.15625 5.519531 -5.457031 5.40625 -5.71875 C 5.300781 -5.976562 5.160156 -6.195312 4.984375 -6.375 C 4.804688 -6.550781 4.601562 -6.679688 4.375 -6.765625 C 4.15625 -6.859375 3.925781 -6.90625 3.6875 -6.90625 C 3.46875 -6.90625 3.25 -6.863281 3.03125 -6.78125 C 2.820312 -6.707031 2.632812 -6.585938 2.46875 -6.421875 C 2.3125 -6.253906 2.1875 -6.050781 2.09375 -5.8125 C 2 -5.570312 1.953125 -5.285156 1.953125 -4.953125 L 1.953125 -2.828125 C 1.953125 -2.492188 2 -2.207031 2.09375 -1.96875 C 2.1875 -1.726562 2.3125 -1.523438 2.46875 -1.359375 C 2.632812 -1.191406 2.820312 -1.066406 3.03125 -0.984375 C 3.25 -0.910156 3.46875 -0.875 3.6875 -0.875 C 3.925781 -0.875 4.15625 -0.914062 4.375 -1 C 4.601562 -1.09375 4.804688 -1.226562 4.984375 -1.40625 C 5.160156 -1.582031 5.300781 -1.800781 5.40625 -2.0625 C 5.519531 -2.320312 5.578125 -2.625 5.578125 -2.96875 Z M 5.578125 -4.8125 "/></g></g></g><g fill="#000000" fill-opacity="1"><g transform="translate(20.561952, 14.224915)"><g><path d="M 1.015625 0 L 1.015625 -7.78125 L 1.96875 -7.78125 L 2.09375 -6.703125 C 2.382812 -7.117188 2.722656 -7.421875 3.109375 -7.609375 C 3.503906 -7.796875 3.90625 -7.890625 4.3125 -7.890625 C 4.632812 -7.890625 4.945312 -7.828125 5.25 -7.703125 C 5.550781 -7.578125 5.816406 -7.394531 6.046875 -7.15625 C 6.273438 -6.925781 6.457031 -6.640625 6.59375 -6.296875 C 6.738281 -5.953125 6.8125 -5.554688 6.8125 -5.109375 L 6.8125 0 L 5.734375 0 L 5.734375 -5.109375 C 5.734375 -5.421875 5.6875 -5.6875 5.59375 -5.90625 C 5.507812 -6.132812 5.394531 -6.320312 5.25 -6.46875 C 5.101562 -6.613281 4.9375 -6.722656 4.75 -6.796875 C 4.5625 -6.867188 4.363281 -6.90625 4.15625 -6.90625 C 3.90625 -6.90625 3.65625 -6.851562 3.40625 -6.75 C 3.164062 -6.65625 2.945312 -6.515625 2.75 -6.328125 C 2.5625 -6.148438 2.40625 -5.929688 2.28125 -5.671875 C 2.15625 -5.410156 2.09375 -5.109375 2.09375 -4.765625 L 2.09375 0 Z M 1.015625 0 "/></g></g></g><g fill="#000000" fill-opacity="1"><g transform="translate(28.388509, 14.224915)"><g><path d="M 5.578125 -0.921875 C 5.273438 -0.554688 4.9375 -0.289062 4.5625 -0.125 C 4.195312 0.03125 3.828125 0.109375 3.453125 0.109375 C 3.117188 0.109375 2.796875 0.046875 2.484375 -0.078125 C 2.171875 -0.210938 1.894531 -0.40625 1.65625 -0.65625 C 1.414062 -0.914062 1.222656 -1.222656 1.078125 -1.578125 C 0.929688 -1.941406 0.859375 -2.359375 0.859375 -2.828125 L 0.859375 -4.953125 C 0.859375 -5.421875 0.929688 -5.832031 1.078125 -6.1875 C 1.222656 -6.550781 1.414062 -6.859375 1.65625 -7.109375 C 1.894531 -7.367188 2.171875 -7.5625 2.484375 -7.6875 C 2.796875 -7.820312 3.117188 -7.890625 3.453125 -7.890625 C 3.828125 -7.890625 4.195312 -7.804688 4.5625 -7.640625 C 4.9375 -7.484375 5.273438 -7.222656 5.578125 -6.859375 L 5.6875 -7.78125 L 6.65625 -7.78125 L 6.65625 0 L 5.671875 0 Z M 5.578125 -4.8125 C 5.578125 -5.15625 5.519531 -5.457031 5.40625 -5.71875 C 5.300781 -5.976562 5.160156 -6.195312 4.984375 -6.375 C 4.804688 -6.550781 4.601562 -6.679688 4.375 -6.765625 C 4.15625 -6.859375 3.925781 -6.90625 3.6875 -6.90625 C 3.46875 -6.90625 3.25 -6.863281 3.03125 -6.78125 C 2.820312 -6.707031 2.632812 -6.585938 2.46875 -6.421875 C 2.3125 -6.253906 2.1875 -6.050781 2.09375 -5.8125 C 2 -5.570312 1.953125 -5.285156 1.953125 -4.953125 L 1.953125 -2.828125 C 1.953125 -2.492188 2 -2.207031 2.09375 -1.96875 C 2.1875 -1.726562 2.3125 -1.523438 2.46875 -1.359375 C 2.632812 -1.191406 2.820312 -1.066406 3.03125 -0.984375 C 3.25 -0.910156 3.46875 -0.875 3.6875 -0.875 C 3.925781 -0.875 4.15625 -0.914062 4.375 -1 C 4.601562 -1.09375 4.804688 -1.226562 4.984375 -1.40625 C 5.160156 -1.582031 5.300781 -1.800781 5.40625 -2.0625 C 5.519531 -2.320312 5.578125 -2.625 5.578125 -2.96875 Z M 5.578125 -4.8125 "/></g></g></g><g fill="#000000" fill-opacity="1"><g transform="translate(36.059464, 14.224915)"><g><path d="M 5.578125 -0.921875 C 5.273438 -0.554688 4.9375 -0.289062 4.5625 -0.125 C 4.195312 0.03125 3.828125 0.109375 3.453125 0.109375 C 3.117188 0.109375 2.796875 0.046875 2.484375 -0.078125 C 2.171875 -0.210938 1.894531 -0.40625 1.65625 -0.65625 C 1.414062 -0.914062 1.222656 -1.222656 1.078125 -1.578125 C 0.929688 -1.941406 0.859375 -2.359375 0.859375 -2.828125 L 0.859375 -4.953125 C 0.859375 -5.421875 0.929688 -5.832031 1.078125 -6.1875 C 1.222656 -6.550781 1.414062 -6.859375 1.65625 -7.109375 C 1.894531 -7.367188 2.171875 -7.5625 2.484375 -7.6875 C 2.796875 -7.820312 3.117188 -7.890625 3.453125 -7.890625 C 3.828125 -7.890625 4.195312 -7.804688 4.5625 -7.640625 C 4.9375 -7.484375 5.273438 -7.222656 5.578125 -6.859375 L 5.6875 -7.78125 L 6.65625 -7.78125 L 6.65625 0.6875 C 6.65625 1.15625 6.566406 1.5625 6.390625 1.90625 C 6.210938 2.257812 5.976562 2.554688 5.6875 2.796875 C 5.40625 3.046875 5.070312 3.226562 4.6875 3.34375 C 4.3125 3.46875 3.925781 3.53125 3.53125 3.53125 C 3.039062 3.53125 2.566406 3.4375 2.109375 3.25 C 1.648438 3.070312 1.25 2.789062 0.90625 2.40625 L 1.5625 1.671875 C 1.800781 1.953125 2.097656 2.164062 2.453125 2.3125 C 2.804688 2.46875 3.171875 2.546875 3.546875 2.546875 C 3.804688 2.546875 4.054688 2.507812 4.296875 2.4375 C 4.546875 2.363281 4.765625 2.25 4.953125 2.09375 C 5.140625 1.945312 5.289062 1.753906 5.40625 1.515625 C 5.519531 1.285156 5.578125 1.007812 5.578125 0.6875 Z M 5.578125 -4.8125 C 5.578125 -5.15625 5.519531 -5.457031 5.40625 -5.71875 C 5.300781 -5.976562 5.160156 -6.195312 4.984375 -6.375 C 4.804688 -6.550781 4.601562 -6.679688 4.375 -6.765625 C 4.15625 -6.859375 3.925781 -6.90625 3.6875 -6.90625 C 3.46875 -6.90625 3.25 -6.863281 3.03125 -6.78125 C 2.820312 -6.707031 2.632812 -6.585938 2.46875 -6.421875 C 2.3125 -6.253906 2.1875 -6.050781 2.09375 -5.8125 C 2 -5.570312 1.953125 -5.285156 1.953125 -4.953125 L 1.953125 -2.828125 C 1.953125 -2.492188 2 -2.207031 2.09375 -1.96875 C 2.1875 -1.726562 2.3125 -1.523438 2.46875 -1.359375 C 2.632812 -1.191406 2.820312 -1.066406 3.03125 -0.984375 C 3.25 -0.910156 3.46875 -0.875 3.6875 -0.875 C 3.925781 -0.875 4.15625 -0.914062 4.375 -1 C 4.601562 -1.09375 4.804688 -1.226562 4.984375 -1.40625 C 5.160156 -1.582031 5.300781 -1.800781 5.40625 -2.0625 C 5.519531 -2.320312 5.578125 -2.625 5.578125 -2.96875 Z M 5.578125 -4.8125 "/></g></g></g><g fill="#000000" fill-opacity="1"><g transform="translate(43.73042, 14.224915)"><g><path d="M 6.75 -1.484375 C 6.613281 -1.210938 6.441406 -0.976562 6.234375 -0.78125 C 6.023438 -0.582031 5.796875 -0.414062 5.546875 -0.28125 C 5.304688 -0.144531 5.046875 -0.046875 4.765625 0.015625 C 4.484375 0.078125 4.203125 0.109375 3.921875 0.109375 C 3.523438 0.109375 3.140625 0.046875 2.765625 -0.078125 C 2.390625 -0.203125 2.054688 -0.394531 1.765625 -0.65625 C 1.472656 -0.914062 1.234375 -1.234375 1.046875 -1.609375 C 0.867188 -1.992188 0.78125 -2.441406 0.78125 -2.953125 L 0.78125 -4.671875 C 0.78125 -5.210938 0.867188 -5.679688 1.046875 -6.078125 C 1.222656 -6.472656 1.453125 -6.804688 1.734375 -7.078125 C 2.015625 -7.347656 2.335938 -7.550781 2.703125 -7.6875 C 3.066406 -7.820312 3.441406 -7.890625 3.828125 -7.890625 C 4.210938 -7.890625 4.585938 -7.820312 4.953125 -7.6875 C 5.328125 -7.550781 5.65625 -7.347656 5.9375 -7.078125 C 6.21875 -6.804688 6.445312 -6.472656 6.625 -6.078125 C 6.800781 -5.679688 6.890625 -5.210938 6.890625 -4.671875 C 6.890625 -4.179688 6.765625 -3.828125 6.515625 -3.609375 C 6.273438 -3.398438 5.941406 -3.296875 5.515625 -3.296875 L 1.875 -3.296875 L 1.875 -2.953125 C 1.875 -2.609375 1.929688 -2.304688 2.046875 -2.046875 C 2.160156 -1.785156 2.3125 -1.566406 2.5 -1.390625 C 2.695312 -1.222656 2.914062 -1.09375 3.15625 -1 C 3.40625 -0.914062 3.660156 -0.875 3.921875 -0.875 C 4.316406 -0.875 4.691406 -0.972656 5.046875 -1.171875 C 5.398438 -1.378906 5.660156 -1.679688 5.828125 -2.078125 Z M 1.875 -4.28125 L 5.4375 -4.28125 C 5.6875 -4.28125 5.8125 -4.410156 5.8125 -4.671875 C 5.8125 -5.046875 5.753906 -5.367188 5.640625 -5.640625 C 5.523438 -5.921875 5.375 -6.15625 5.1875 -6.34375 C 5 -6.53125 4.785156 -6.671875 4.546875 -6.765625 C 4.316406 -6.859375 4.078125 -6.90625 3.828125 -6.90625 C 3.578125 -6.90625 3.332031 -6.859375 3.09375 -6.765625 C 2.863281 -6.671875 2.65625 -6.53125 2.46875 -6.34375 C 2.289062 -6.15625 2.144531 -5.921875 2.03125 -5.640625 C 1.925781 -5.367188 1.875 -5.046875 1.875 -4.671875 Z M 1.875 -4.28125 "/></g></g></g><g fill="#000000" fill-opacity="1"><g transform="translate(51.245775, 14.224915)"><g/></g></g><g fill="#000000" fill-opacity="1"><g transform="translate(56.224894, 14.224915)"><g><path d="M 6.8125 0.6875 C 6.8125 1.15625 6.722656 1.5625 6.546875 1.90625 C 6.367188 2.257812 6.132812 2.554688 5.84375 2.796875 C 5.5625 3.046875 5.226562 3.226562 4.84375 3.34375 C 4.46875 3.46875 4.082031 3.53125 3.6875 3.53125 C 3.195312 3.53125 2.722656 3.4375 2.265625 3.25 C 1.804688 3.070312 1.40625 2.789062 1.0625 2.40625 L 1.71875 1.671875 C 1.945312 1.953125 2.238281 2.164062 2.59375 2.3125 C 2.957031 2.46875 3.328125 2.546875 3.703125 2.546875 C 3.960938 2.546875 4.210938 2.507812 4.453125 2.4375 C 4.703125 2.363281 4.921875 2.25 5.109375 2.09375 C 5.296875 1.945312 5.445312 1.753906 5.5625 1.515625 C 5.675781 1.285156 5.734375 1.007812 5.734375 0.6875 L 5.734375 -1 C 5.398438 -0.625 5.046875 -0.34375 4.671875 -0.15625 C 4.296875 0.0195312 3.90625 0.109375 3.5 0.109375 C 3.175781 0.109375 2.863281 0.0507812 2.5625 -0.0625 C 2.257812 -0.1875 1.992188 -0.363281 1.765625 -0.59375 C 1.535156 -0.820312 1.351562 -1.101562 1.21875 -1.4375 C 1.082031 -1.78125 1.015625 -2.171875 1.015625 -2.609375 L 1.015625 -7.78125 L 2.09375 -7.78125 L 2.09375 -2.609375 C 2.09375 -2.015625 2.25 -1.578125 2.5625 -1.296875 C 2.875 -1.015625 3.234375 -0.875 3.640625 -0.875 C 3.890625 -0.875 4.140625 -0.921875 4.390625 -1.015625 C 4.640625 -1.117188 4.863281 -1.265625 5.0625 -1.453125 C 5.257812 -1.640625 5.421875 -1.859375 5.546875 -2.109375 C 5.671875 -2.367188 5.734375 -2.660156 5.734375 -2.984375 L 5.734375 -7.78125 L 6.8125 -7.78125 Z M 6.8125 0.6875 "/></g></g></g><g fill="#000000" fill-opacity="1"><g transform="translate(64.051451, 14.224915)"><g><path d="M 0.78125 -4.828125 C 0.78125 -5.335938 0.867188 -5.78125 1.046875 -6.15625 C 1.234375 -6.539062 1.472656 -6.859375 1.765625 -7.109375 C 2.066406 -7.367188 2.410156 -7.5625 2.796875 -7.6875 C 3.179688 -7.820312 3.578125 -7.890625 3.984375 -7.890625 C 4.390625 -7.890625 4.785156 -7.820312 5.171875 -7.6875 C 5.554688 -7.5625 5.894531 -7.367188 6.1875 -7.109375 C 6.488281 -6.859375 6.734375 -6.539062 6.921875 -6.15625 C 7.109375 -5.78125 7.203125 -5.335938 7.203125 -4.828125 L 7.203125 -2.953125 C 7.203125 -2.441406 7.109375 -1.992188 6.921875 -1.609375 C 6.734375 -1.234375 6.488281 -0.914062 6.1875 -0.65625 C 5.894531 -0.394531 5.554688 -0.203125 5.171875 -0.078125 C 4.785156 0.046875 4.390625 0.109375 3.984375 0.109375 C 3.578125 0.109375 3.179688 0.046875 2.796875 -0.078125 C 2.410156 -0.203125 2.066406 -0.394531 1.765625 -0.65625 C 1.472656 -0.914062 1.234375 -1.234375 1.046875 -1.609375 C 0.867188 -1.992188 0.78125 -2.441406 0.78125 -2.953125 Z M 6.109375 -4.828125 C 6.109375 -5.171875 6.046875 -5.472656 5.921875 -5.734375 C 5.804688 -5.992188 5.648438 -6.207031 5.453125 -6.375 C 5.253906 -6.550781 5.023438 -6.679688 4.765625 -6.765625 C 4.515625 -6.859375 4.253906 -6.90625 3.984375 -6.90625 C 3.722656 -6.90625 3.460938 -6.859375 3.203125 -6.765625 C 2.953125 -6.679688 2.722656 -6.550781 2.515625 -6.375 C 2.316406 -6.207031 2.160156 -5.992188 2.046875 -5.734375 C 1.929688 -5.472656 1.875 -5.171875 1.875 -4.828125 L 1.875 -2.953125 C 1.875 -2.597656 1.929688 -2.289062 2.046875 -2.03125 C 2.160156 -1.78125 2.316406 -1.566406 2.515625 -1.390625 C 2.722656 -1.222656 2.953125 -1.09375 3.203125 -1 C 3.460938 -0.914062 3.722656 -0.875 3.984375 -0.875 C 4.253906 -0.875 4.515625 -0.914062 4.765625 -1 C 5.023438 -1.09375 5.253906 -1.222656 5.453125 -1.390625 C 5.648438 -1.566406 5.804688 -1.78125 5.921875 -2.03125 C 6.046875 -2.289062 6.109375 -2.597656 6.109375 -2.953125 Z M 6.109375 -4.828125 "/></g></g></g><g fill="#000000" fill-opacity="1"><g transform="translate(72.033608, 14.224915)"><g><path d="M 2.09375 -7.78125 L 2.09375 -2.609375 C 2.09375 -2.015625 2.25 -1.578125 2.5625 -1.296875 C 2.875 -1.015625 3.234375 -0.875 3.640625 -0.875 C 3.890625 -0.875 4.140625 -0.921875 4.390625 -1.015625 C 4.640625 -1.117188 4.863281 -1.265625 5.0625 -1.453125 C 5.257812 -1.640625 5.421875 -1.859375 5.546875 -2.109375 C 5.671875 -2.367188 5.734375 -2.660156 5.734375 -2.984375 L 5.734375 -7.78125 L 6.8125 -7.78125 L 6.8125 0 L 5.84375 0 L 5.734375 -1 C 5.398438 -0.625 5.046875 -0.34375 4.671875 -0.15625 C 4.296875 0.0195312 3.90625 0.109375 3.5 0.109375 C 3.175781 0.109375 2.863281 0.0507812 2.5625 -0.0625 C 2.257812 -0.1875 1.992188 -0.363281 1.765625 -0.59375 C 1.535156 -0.820312 1.351562 -1.101562 1.21875 -1.4375 C 1.082031 -1.78125 1.015625 -2.171875 1.015625 -2.609375 L 1.015625 -7.78125 Z M 2.09375 -7.78125 "/></g></g></g><g fill="#000000" fill-opacity="1"><g transform="translate(79.860164, 14.224915)"><g><path d="M 5.265625 -6.6875 C 4.890625 -6.832031 4.535156 -6.90625 4.203125 -6.90625 C 3.910156 -6.90625 3.632812 -6.847656 3.375 -6.734375 C 3.113281 -6.628906 2.890625 -6.472656 2.703125 -6.265625 C 2.515625 -6.054688 2.363281 -5.804688 2.25 -5.515625 C 2.144531 -5.222656 2.09375 -4.882812 2.09375 -4.5 L 2.09375 0 L 1.015625 0 L 1.015625 -7.78125 L 1.984375 -7.78125 L 2.09375 -6.65625 C 2.582031 -7.476562 3.285156 -7.890625 4.203125 -7.890625 C 4.503906 -7.890625 4.859375 -7.832031 5.265625 -7.71875 Z M 5.265625 -6.6875 "/></g></g></g><g fill="#000000" fill-opacity="1"><g transform="translate(85.430554, 14.224915)"><g/></g></g><g fill="#000000" fill-opacity="1"><g transform="translate(90.409674, 14.224915)"><g><path d="M 9.453125 -5.359375 C 9.453125 -5.890625 9.316406 -6.28125 9.046875 -6.53125 C 8.785156 -6.78125 8.476562 -6.90625 8.125 -6.90625 C 7.90625 -6.90625 7.6875 -6.859375 7.46875 -6.765625 C 7.257812 -6.679688 7.066406 -6.554688 6.890625 -6.390625 C 6.722656 -6.222656 6.582031 -6.019531 6.46875 -5.78125 C 6.363281 -5.550781 6.3125 -5.285156 6.3125 -4.984375 L 6.3125 0 L 5.234375 0 L 5.234375 -5.359375 C 5.234375 -5.890625 5.097656 -6.28125 4.828125 -6.53125 C 4.566406 -6.78125 4.257812 -6.90625 3.90625 -6.90625 C 3.6875 -6.90625 3.46875 -6.859375 3.25 -6.765625 C 3.039062 -6.679688 2.847656 -6.554688 2.671875 -6.390625 C 2.503906 -6.222656 2.363281 -6.019531 2.25 -5.78125 C 2.144531 -5.550781 2.09375 -5.285156 2.09375 -4.984375 L 2.09375 0 L 1.015625 0 L 1.015625 -7.78125 L 1.96875 -7.78125 L 2.09375 -6.765625 C 2.34375 -7.160156 2.644531 -7.445312 3 -7.625 C 3.363281 -7.800781 3.726562 -7.890625 4.09375 -7.890625 C 4.488281 -7.890625 4.847656 -7.785156 5.171875 -7.578125 C 5.503906 -7.378906 5.738281 -7.070312 5.875 -6.65625 C 6.15625 -7.082031 6.5 -7.394531 6.90625 -7.59375 C 7.320312 -7.789062 7.75 -7.890625 8.1875 -7.890625 C 8.488281 -7.890625 8.78125 -7.835938 9.0625 -7.734375 C 9.351562 -7.628906 9.601562 -7.46875 9.8125 -7.25 C 10.03125 -7.039062 10.203125 -6.773438 10.328125 -6.453125 C 10.460938 -6.140625 10.53125 -5.773438 10.53125 -5.359375 L 10.53125 0 L 9.453125 0 Z M 9.453125 -5.359375 "/></g></g></g><g fill="#000000" fill-opacity="1"><g transform="translate(101.955008, 14.224915)"><g><path d="M 2.09375 -7.78125 L 2.09375 -2.609375 C 2.09375 -2.015625 2.25 -1.578125 2.5625 -1.296875 C 2.875 -1.015625 3.234375 -0.875 3.640625 -0.875 C 3.890625 -0.875 4.140625 -0.921875 4.390625 -1.015625 C 4.640625 -1.117188 4.863281 -1.265625 5.0625 -1.453125 C 5.257812 -1.640625 5.421875 -1.859375 5.546875 -2.109375 C 5.671875 -2.367188 5.734375 -2.660156 5.734375 -2.984375 L 5.734375 -7.78125 L 6.8125 -7.78125 L 6.8125 0 L 5.84375 0 L 5.734375 -1 C 5.398438 -0.625 5.046875 -0.34375 4.671875 -0.15625 C 4.296875 0.0195312 3.90625 0.109375 3.5 0.109375 C 3.175781 0.109375 2.863281 0.0507812 2.5625 -0.0625 C 2.257812 -0.1875 1.992188 -0.363281 1.765625 -0.59375 C 1.535156 -0.820312 1.351562 -1.101562 1.21875 -1.4375 C 1.082031 -1.78125 1.015625 -2.171875 1.015625 -2.609375 L 1.015625 -7.78125 Z M 2.09375 -7.78125 "/></g></g></g><g fill="#000000" fill-opacity="1"><g transform="translate(109.781564, 14.224915)"><g><path d="M 1.015625 0 L 1.015625 -11.671875 L 2.09375 -11.671875 L 2.09375 0 Z M 1.015625 0 "/></g></g></g><g fill="#000000" fill-opacity="1"><g transform="translate(112.893519, 14.224915)"><g><path d="M 4.4375 -0.140625 C 4.039062 0.0234375 3.648438 0.109375 3.265625 0.109375 C 3.023438 0.109375 2.796875 0.0703125 2.578125 0 C 2.359375 -0.0820312 2.171875 -0.207031 2.015625 -0.375 C 1.859375 -0.539062 1.726562 -0.757812 1.625 -1.03125 C 1.53125 -1.300781 1.484375 -1.625 1.484375 -2 L 1.484375 -6.796875 L 0.3125 -6.796875 L 0.3125 -7.78125 L 1.484375 -7.78125 L 1.484375 -9.796875 L 2.5625 -10.109375 L 2.5625 -7.78125 L 4.4375 -7.78125 L 4.4375 -6.796875 L 2.5625 -6.796875 L 2.5625 -2 C 2.5625 -1.59375 2.644531 -1.300781 2.8125 -1.125 C 2.976562 -0.957031 3.191406 -0.875 3.453125 -0.875 C 3.722656 -0.875 4.050781 -0.957031 4.4375 -1.125 Z M 4.4375 -0.140625 "/></g></g></g><g fill="#000000" fill-opacity="1"><g transform="translate(117.639238, 14.224915)"><g><path d="M 0.75 -10.5 C 0.75 -10.726562 0.828125 -10.921875 0.984375 -11.078125 C 1.140625 -11.234375 1.332031 -11.3125 1.5625 -11.3125 C 1.789062 -11.3125 1.976562 -11.234375 2.125 -11.078125 C 2.28125 -10.921875 2.359375 -10.726562 2.359375 -10.5 C 2.359375 -10.269531 2.28125 -10.078125 2.125 -9.921875 C 1.976562 -9.773438 1.789062 -9.703125 1.5625 -9.703125 C 1.332031 -9.703125 1.140625 -9.773438 0.984375 -9.921875 C 0.828125 -10.078125 0.75 -10.269531 0.75 -10.5 Z M 1.015625 0 L 1.015625 -7.78125 L 2.09375 -7.78125 L 2.09375 0 Z M 1.015625 0 "/></g></g></g><g fill="#000000" fill-opacity="1"><g transform="translate(120.751193, 14.224915)"><g><path d="M 0.625 -3.828125 L 0.625 -4.8125 L 4.546875 -4.8125 L 4.546875 -3.828125 Z M 0.625 -3.828125 "/></g></g></g><g fill="#000000" fill-opacity="1"><g transform="translate(125.91703, 14.224915)"><g><path d="M 5.265625 -6.6875 C 4.890625 -6.832031 4.535156 -6.90625 4.203125 -6.90625 C 3.910156 -6.90625 3.632812 -6.847656 3.375 -6.734375 C 3.113281 -6.628906 2.890625 -6.472656 2.703125 -6.265625 C 2.515625 -6.054688 2.363281 -5.804688 2.25 -5.515625 C 2.144531 -5.222656 2.09375 -4.882812 2.09375 -4.5 L 2.09375 0 L 1.015625 0 L 1.015625 -7.78125 L 1.984375 -7.78125 L 2.09375 -6.65625 C 2.582031 -7.476562 3.285156 -7.890625 4.203125 -7.890625 C 4.503906 -7.890625 4.859375 -7.832031 5.265625 -7.71875 Z M 5.265625 -6.6875 "/></g></g></g><g fill="#000000" fill-opacity="1"><g transform="translate(131.48742, 14.224915)"><g><path d="M 6.75 -1.484375 C 6.613281 -1.210938 6.441406 -0.976562 6.234375 -0.78125 C 6.023438 -0.582031 5.796875 -0.414062 5.546875 -0.28125 C 5.304688 -0.144531 5.046875 -0.046875 4.765625 0.015625 C 4.484375 0.078125 4.203125 0.109375 3.921875 0.109375 C 3.523438 0.109375 3.140625 0.046875 2.765625 -0.078125 C 2.390625 -0.203125 2.054688 -0.394531 1.765625 -0.65625 C 1.472656 -0.914062 1.234375 -1.234375 1.046875 -1.609375 C 0.867188 -1.992188 0.78125 -2.441406 0.78125 -2.953125 L 0.78125 -4.671875 C 0.78125 -5.210938 0.867188 -5.679688 1.046875 -6.078125 C 1.222656 -6.472656 1.453125 -6.804688 1.734375 -7.078125 C 2.015625 -7.347656 2.335938 -7.550781 2.703125 -7.6875 C 3.066406 -7.820312 3.441406 -7.890625 3.828125 -7.890625 C 4.210938 -7.890625 4.585938 -7.820312 4.953125 -7.6875 C 5.328125 -7.550781 5.65625 -7.347656 5.9375 -7.078125 C 6.21875 -6.804688 6.445312 -6.472656 6.625 -6.078125 C 6.800781 -5.679688 6.890625 -5.210938 6.890625 -4.671875 C 6.890625 -4.179688 6.765625 -3.828125 6.515625 -3.609375 C 6.273438 -3.398438 5.941406 -3.296875 5.515625 -3.296875 L 1.875 -3.296875 L 1.875 -2.953125 C 1.875 -2.609375 1.929688 -2.304688 2.046875 -2.046875 C 2.160156 -1.785156 2.3125 -1.566406 2.5 -1.390625 C 2.695312 -1.222656 2.914062 -1.09375 3.15625 -1 C 3.40625 -0.914062 3.660156 -0.875 3.921875 -0.875 C 4.316406 -0.875 4.691406 -0.972656 5.046875 -1.171875 C 5.398438 -1.378906 5.660156 -1.679688 5.828125 -2.078125 Z M 1.875 -4.28125 L 5.4375 -4.28125 C 5.6875 -4.28125 5.8125 -4.410156 5.8125 -4.671875 C 5.8125 -5.046875 5.753906 -5.367188 5.640625 -5.640625 C 5.523438 -5.921875 5.375 -6.15625 5.1875 -6.34375 C 5 -6.53125 4.785156 -6.671875 4.546875 -6.765625 C 4.316406 -6.859375 4.078125 -6.90625 3.828125 -6.90625 C 3.578125 -6.90625 3.332031 -6.859375 3.09375 -6.765625 C 2.863281 -6.671875 2.65625 -6.53125 2.46875 -6.34375 C 2.289062 -6.15625 2.144531 -5.921875 2.03125 -5.640625 C 1.925781 -5.367188 1.875 -5.046875 1.875 -4.671875 Z M 1.875 -4.28125 "/></g></g></g><g fill="#000000" fill-opacity="1"><g transform="translate(139.002775, 14.224915)"><g><path d="M 2.09375 3.421875 L 1.015625 3.421875 L 1.015625 -7.78125 L 1.984375 -7.78125 L 2.09375 -6.859375 C 2.394531 -7.222656 2.726562 -7.484375 3.09375 -7.640625 C 3.46875 -7.804688 3.84375 -7.890625 4.21875 -7.890625 C 4.550781 -7.890625 4.875 -7.820312 5.1875 -7.6875 C 5.507812 -7.5625 5.785156 -7.367188 6.015625 -7.109375 C 6.253906 -6.859375 6.445312 -6.550781 6.59375 -6.1875 C 6.738281 -5.832031 6.8125 -5.421875 6.8125 -4.953125 L 6.8125 -2.828125 C 6.8125 -2.359375 6.738281 -1.941406 6.59375 -1.578125 C 6.445312 -1.222656 6.253906 -0.914062 6.015625 -0.65625 C 5.785156 -0.40625 5.507812 -0.210938 5.1875 -0.078125 C 4.875 0.046875 4.550781 0.109375 4.21875 0.109375 C 3.84375 0.109375 3.46875 0.03125 3.09375 -0.125 C 2.726562 -0.289062 2.394531 -0.554688 2.09375 -0.921875 Z M 2.09375 -2.96875 C 2.09375 -2.625 2.144531 -2.320312 2.25 -2.0625 C 2.363281 -1.800781 2.507812 -1.582031 2.6875 -1.40625 C 2.863281 -1.226562 3.066406 -1.09375 3.296875 -1 C 3.523438 -0.914062 3.753906 -0.875 3.984375 -0.875 C 4.203125 -0.875 4.414062 -0.910156 4.625 -0.984375 C 4.84375 -1.066406 5.03125 -1.191406 5.1875 -1.359375 C 5.351562 -1.523438 5.484375 -1.726562 5.578125 -1.96875 C 5.679688 -2.207031 5.734375 -2.492188 5.734375 -2.828125 L 5.734375 -4.953125 C 5.734375 -5.285156 5.679688 -5.570312 5.578125 -5.8125 C 5.484375 -6.050781 5.351562 -6.253906 5.1875 -6.421875 C 5.03125 -6.585938 4.84375 -6.707031 4.625 -6.78125 C 4.414062 -6.863281 4.203125 -6.90625 3.984375 -6.90625 C 3.753906 -6.90625 3.523438 -6.859375 3.296875 -6.765625 C 3.066406 -6.679688 2.863281 -6.550781 2.6875 -6.375 C 2.507812 -6.195312 2.363281 -5.976562 2.25 -5.71875 C 2.144531 -5.457031 2.09375 -5.15625 2.09375 -4.8125 Z M 2.09375 -2.96875 "/></g></g></g><g fill="#000000" fill-opacity="1"><g transform="translate(146.673731, 14.224915)"><g><path d="M 0.78125 -4.828125 C 0.78125 -5.335938 0.867188 -5.78125 1.046875 -6.15625 C 1.234375 -6.539062 1.472656 -6.859375 1.765625 -7.109375 C 2.066406 -7.367188 2.410156 -7.5625 2.796875 -7.6875 C 3.179688 -7.820312 3.578125 -7.890625 3.984375 -7.890625 C 4.390625 -7.890625 4.785156 -7.820312 5.171875 -7.6875 C 5.554688 -7.5625 5.894531 -7.367188 6.1875 -7.109375 C 6.488281 -6.859375 6.734375 -6.539062 6.921875 -6.15625 C 7.109375 -5.78125 7.203125 -5.335938 7.203125 -4.828125 L 7.203125 -2.953125 C 7.203125 -2.441406 7.109375 -1.992188 6.921875 -1.609375 C 6.734375 -1.234375 6.488281 -0.914062 6.1875 -0.65625 C 5.894531 -0.394531 5.554688 -0.203125 5.171875 -0.078125 C 4.785156 0.046875 4.390625 0.109375 3.984375 0.109375 C 3.578125 0.109375 3.179688 0.046875 2.796875 -0.078125 C 2.410156 -0.203125 2.066406 -0.394531 1.765625 -0.65625 C 1.472656 -0.914062 1.234375 -1.234375 1.046875 -1.609375 C 0.867188 -1.992188 0.78125 -2.441406 0.78125 -2.953125 Z M 6.109375 -4.828125 C 6.109375 -5.171875 6.046875 -5.472656 5.921875 -5.734375 C 5.804688 -5.992188 5.648438 -6.207031 5.453125 -6.375 C 5.253906 -6.550781 5.023438 -6.679688 4.765625 -6.765625 C 4.515625 -6.859375 4.253906 -6.90625 3.984375 -6.90625 C 3.722656 -6.90625 3.460938 -6.859375 3.203125 -6.765625 C 2.953125 -6.679688 2.722656 -6.550781 2.515625 -6.375 C 2.316406 -6.207031 2.160156 -5.992188 2.046875 -5.734375 C 1.929688 -5.472656 1.875 -5.171875 1.875 -4.828125 L 1.875 -2.953125 C 1.875 -2.597656 1.929688 -2.289062 2.046875 -2.03125 C 2.160156 -1.78125 2.316406 -1.566406 2.515625 -1.390625 C 2.722656 -1.222656 2.953125 -1.09375 3.203125 -1 C 3.460938 -0.914062 3.722656 -0.875 3.984375 -0.875 C 4.253906 -0.875 4.515625 -0.914062 4.765625 -1 C 5.023438 -1.09375 5.253906 -1.222656 5.453125 -1.390625 C 5.648438 -1.566406 5.804688 -1.78125 5.921875 -2.03125 C 6.046875 -2.289062 6.109375 -2.597656 6.109375 -2.953125 Z M 6.109375 -4.828125 "/></g></g></g><g fill="#000000" fill-opacity="1"><g transform="translate(154.655888, 14.224915)"><g><path d="M 5.421875 -6.609375 C 5.222656 -6.660156 4.9375 -6.722656 4.5625 -6.796875 C 4.195312 -6.867188 3.820312 -6.90625 3.4375 -6.90625 C 3.21875 -6.90625 3.003906 -6.890625 2.796875 -6.859375 C 2.597656 -6.828125 2.421875 -6.769531 2.265625 -6.6875 C 2.109375 -6.601562 1.984375 -6.488281 1.890625 -6.34375 C 1.796875 -6.207031 1.75 -6.039062 1.75 -5.84375 C 1.75 -5.625 1.789062 -5.4375 1.875 -5.28125 C 1.957031 -5.132812 2.078125 -5.007812 2.234375 -4.90625 C 2.390625 -4.800781 2.570312 -4.710938 2.78125 -4.640625 C 2.988281 -4.566406 3.207031 -4.5 3.4375 -4.4375 C 3.71875 -4.363281 4.003906 -4.273438 4.296875 -4.171875 C 4.585938 -4.066406 4.847656 -3.925781 5.078125 -3.75 C 5.316406 -3.582031 5.507812 -3.363281 5.65625 -3.09375 C 5.800781 -2.820312 5.875 -2.476562 5.875 -2.0625 C 5.875 -1.675781 5.800781 -1.34375 5.65625 -1.0625 C 5.519531 -0.789062 5.320312 -0.566406 5.0625 -0.390625 C 4.8125 -0.210938 4.515625 -0.0820312 4.171875 0 C 3.835938 0.0703125 3.476562 0.109375 3.09375 0.109375 C 2.65625 0.109375 2.207031 0.0625 1.75 -0.03125 C 1.300781 -0.125 0.859375 -0.253906 0.421875 -0.421875 L 0.609375 -1.40625 C 0.753906 -1.34375 0.921875 -1.28125 1.109375 -1.21875 C 1.304688 -1.15625 1.515625 -1.097656 1.734375 -1.046875 C 1.953125 -0.992188 2.179688 -0.953125 2.421875 -0.921875 C 2.660156 -0.890625 2.894531 -0.875 3.125 -0.875 C 3.351562 -0.875 3.566406 -0.890625 3.765625 -0.921875 C 3.972656 -0.960938 4.148438 -1.03125 4.296875 -1.125 C 4.453125 -1.21875 4.570312 -1.34375 4.65625 -1.5 C 4.75 -1.65625 4.796875 -1.84375 4.796875 -2.0625 C 4.796875 -2.269531 4.75 -2.441406 4.65625 -2.578125 C 4.5625 -2.722656 4.4375 -2.847656 4.28125 -2.953125 C 4.132812 -3.066406 3.960938 -3.160156 3.765625 -3.234375 C 3.566406 -3.304688 3.363281 -3.375 3.15625 -3.4375 C 2.863281 -3.519531 2.570312 -3.613281 2.28125 -3.71875 C 1.988281 -3.820312 1.71875 -3.957031 1.46875 -4.125 C 1.226562 -4.300781 1.03125 -4.523438 0.875 -4.796875 C 0.726562 -5.066406 0.65625 -5.414062 0.65625 -5.84375 C 0.65625 -6.226562 0.734375 -6.550781 0.890625 -6.8125 C 1.054688 -7.082031 1.269531 -7.296875 1.53125 -7.453125 C 1.789062 -7.609375 2.082031 -7.71875 2.40625 -7.78125 C 2.738281 -7.851562 3.082031 -7.890625 3.4375 -7.890625 C 3.820312 -7.890625 4.203125 -7.859375 4.578125 -7.796875 C 4.960938 -7.734375 5.304688 -7.660156 5.609375 -7.578125 Z M 5.421875 -6.609375 "/></g></g></g><g fill="#000000" fill-opacity="1"><g transform="translate(161.019818, 14.224915)"><g><path d="M 0.75 -10.5 C 0.75 -10.726562 0.828125 -10.921875 0.984375 -11.078125 C 1.140625 -11.234375 1.332031 -11.3125 1.5625 -11.3125 C 1.789062 -11.3125 1.976562 -11.234375 2.125 -11.078125 C 2.28125 -10.921875 2.359375 -10.726562 2.359375 -10.5 C 2.359375 -10.269531 2.28125 -10.078125 2.125 -9.921875 C 1.976562 -9.773438 1.789062 -9.703125 1.5625 -9.703125 C 1.332031 -9.703125 1.140625 -9.773438 0.984375 -9.921875 C 0.828125 -10.078125 0.75 -10.269531 0.75 -10.5 Z M 1.015625 0 L 1.015625 -7.78125 L 2.09375 -7.78125 L 2.09375 0 Z M 1.015625 0 "/></g></g></g><g fill="#000000" fill-opacity="1"><g transform="translate(164.131773, 14.224915)"><g><path d="M 4.4375 -0.140625 C 4.039062 0.0234375 3.648438 0.109375 3.265625 0.109375 C 3.023438 0.109375 2.796875 0.0703125 2.578125 0 C 2.359375 -0.0820312 2.171875 -0.207031 2.015625 -0.375 C 1.859375 -0.539062 1.726562 -0.757812 1.625 -1.03125 C 1.53125 -1.300781 1.484375 -1.625 1.484375 -2 L 1.484375 -6.796875 L 0.3125 -6.796875 L 0.3125 -7.78125 L 1.484375 -7.78125 L 1.484375 -9.796875 L 2.5625 -10.109375 L 2.5625 -7.78125 L 4.4375 -7.78125 L 4.4375 -6.796875 L 2.5625 -6.796875 L 2.5625 -2 C 2.5625 -1.59375 2.644531 -1.300781 2.8125 -1.125 C 2.976562 -0.957031 3.191406 -0.875 3.453125 -0.875 C 3.722656 -0.875 4.050781 -0.957031 4.4375 -1.125 Z M 4.4375 -0.140625 "/></g></g></g><g fill="#000000" fill-opacity="1"><g transform="translate(168.877492, 14.224915)"><g><path d="M 0.78125 -4.828125 C 0.78125 -5.335938 0.867188 -5.78125 1.046875 -6.15625 C 1.234375 -6.539062 1.472656 -6.859375 1.765625 -7.109375 C 2.066406 -7.367188 2.410156 -7.5625 2.796875 -7.6875 C 3.179688 -7.820312 3.578125 -7.890625 3.984375 -7.890625 C 4.390625 -7.890625 4.785156 -7.820312 5.171875 -7.6875 C 5.554688 -7.5625 5.894531 -7.367188 6.1875 -7.109375 C 6.488281 -6.859375 6.734375 -6.539062 6.921875 -6.15625 C 7.109375 -5.78125 7.203125 -5.335938 7.203125 -4.828125 L 7.203125 -2.953125 C 7.203125 -2.441406 7.109375 -1.992188 6.921875 -1.609375 C 6.734375 -1.234375 6.488281 -0.914062 6.1875 -0.65625 C 5.894531 -0.394531 5.554688 -0.203125 5.171875 -0.078125 C 4.785156 0.046875 4.390625 0.109375 3.984375 0.109375 C 3.578125 0.109375 3.179688 0.046875 2.796875 -0.078125 C 2.410156 -0.203125 2.066406 -0.394531 1.765625 -0.65625 C 1.472656 -0.914062 1.234375 -1.234375 1.046875 -1.609375 C 0.867188 -1.992188 0.78125 -2.441406 0.78125 -2.953125 Z M 6.109375 -4.828125 C 6.109375 -5.171875 6.046875 -5.472656 5.921875 -5.734375 C 5.804688 -5.992188 5.648438 -6.207031 5.453125 -6.375 C 5.253906 -6.550781 5.023438 -6.679688 4.765625 -6.765625 C 4.515625 -6.859375 4.253906 -6.90625 3.984375 -6.90625 C 3.722656 -6.90625 3.460938 -6.859375 3.203125 -6.765625 C 2.953125 -6.679688 2.722656 -6.550781 2.515625 -6.375 C 2.316406 -6.207031 2.160156 -5.992188 2.046875 -5.734375 C 1.929688 -5.472656 1.875 -5.171875 1.875 -4.828125 L 1.875 -2.953125 C 1.875 -2.597656 1.929688 -2.289062 2.046875 -2.03125 C 2.160156 -1.78125 2.316406 -1.566406 2.515625 -1.390625 C 2.722656 -1.222656 2.953125 -1.09375 3.203125 -1 C 3.460938 -0.914062 3.722656 -0.875 3.984375 -0.875 C 4.253906 -0.875 4.515625 -0.914062 4.765625 -1 C 5.023438 -1.09375 5.253906 -1.222656 5.453125 -1.390625 C 5.648438 -1.566406 5.804688 -1.78125 5.921875 -2.03125 C 6.046875 -2.289062 6.109375 -2.597656 6.109375 -2.953125 Z M 6.109375 -4.828125 "/></g></g></g><g fill="#000000" fill-opacity="1"><g transform="translate(176.859649, 14.224915)"><g><path d="M 5.265625 -6.6875 C 4.890625 -6.832031 4.535156 -6.90625 4.203125 -6.90625 C 3.910156 -6.90625 3.632812 -6.847656 3.375 -6.734375 C 3.113281 -6.628906 2.890625 -6.472656 2.703125 -6.265625 C 2.515625 -6.054688 2.363281 -5.804688 2.25 -5.515625 C 2.144531 -5.222656 2.09375 -4.882812 2.09375 -4.5 L 2.09375 0 L 1.015625 0 L 1.015625 -7.78125 L 1.984375 -7.78125 L 2.09375 -6.65625 C 2.582031 -7.476562 3.285156 -7.890625 4.203125 -7.890625 C 4.503906 -7.890625 4.859375 -7.832031 5.265625 -7.71875 Z M 5.265625 -6.6875 "/></g></g></g><g fill="#000000" fill-opacity="1"><g transform="translate(182.430039, 14.224915)"><g><path d="M 6.8125 0.6875 C 6.8125 1.15625 6.722656 1.5625 6.546875 1.90625 C 6.367188 2.257812 6.132812 2.554688 5.84375 2.796875 C 5.5625 3.046875 5.226562 3.226562 4.84375 3.34375 C 4.46875 3.46875 4.082031 3.53125 3.6875 3.53125 C 3.195312 3.53125 2.722656 3.4375 2.265625 3.25 C 1.804688 3.070312 1.40625 2.789062 1.0625 2.40625 L 1.71875 1.671875 C 1.945312 1.953125 2.238281 2.164062 2.59375 2.3125 C 2.957031 2.46875 3.328125 2.546875 3.703125 2.546875 C 3.960938 2.546875 4.210938 2.507812 4.453125 2.4375 C 4.703125 2.363281 4.921875 2.25 5.109375 2.09375 C 5.296875 1.945312 5.445312 1.753906 5.5625 1.515625 C 5.675781 1.285156 5.734375 1.007812 5.734375 0.6875 L 5.734375 -1 C 5.398438 -0.625 5.046875 -0.34375 4.671875 -0.15625 C 4.296875 0.0195312 3.90625 0.109375 3.5 0.109375 C 3.175781 0.109375 2.863281 0.0507812 2.5625 -0.0625 C 2.257812 -0.1875 1.992188 -0.363281 1.765625 -0.59375 C 1.535156 -0.820312 1.351562 -1.101562 1.21875 -1.4375 C 1.082031 -1.78125 1.015625 -2.171875 1.015625 -2.609375 L 1.015625 -7.78125 L 2.09375 -7.78125 L 2.09375 -2.609375 C 2.09375 -2.015625 2.25 -1.578125 2.5625 -1.296875 C 2.875 -1.015625 3.234375 -0.875 3.640625 -0.875 C 3.890625 -0.875 4.140625 -0.921875 4.390625 -1.015625 C 4.640625 -1.117188 4.863281 -1.265625 5.0625 -1.453125 C 5.257812 -1.640625 5.421875 -1.859375 5.546875 -2.109375 C 5.671875 -2.367188 5.734375 -2.660156 5.734375 -2.984375 L 5.734375 -7.78125 L 6.8125 -7.78125 Z M 6.8125 0.6875 "/></g></g></g><g fill="#000000" fill-opacity="1"><g transform="translate(190.256596, 14.224915)"><g/></g></g><g fill="#000000" fill-opacity="1"><g transform="translate(195.235715, 14.224915)"><g><path d="M 6.0625 -2.296875 C 6.0625 -2.066406 6.101562 -1.859375 6.1875 -1.671875 C 6.269531 -1.492188 6.378906 -1.34375 6.515625 -1.21875 C 6.648438 -1.101562 6.804688 -1.015625 6.984375 -0.953125 C 7.160156 -0.898438 7.335938 -0.875 7.515625 -0.875 C 7.691406 -0.875 7.863281 -0.898438 8.03125 -0.953125 C 8.207031 -1.015625 8.363281 -1.101562 8.5 -1.21875 C 8.632812 -1.34375 8.742188 -1.492188 8.828125 -1.671875 C 8.910156 -1.859375 8.953125 -2.066406 8.953125 -2.296875 L 8.953125 -7.78125 L 10.03125 -7.78125 L 10.03125 -2.296875 C 10.03125 -1.921875 9.960938 -1.582031 9.828125 -1.28125 C 9.691406 -0.976562 9.507812 -0.722656 9.28125 -0.515625 C 9.050781 -0.316406 8.789062 -0.160156 8.5 -0.046875 C 8.207031 0.0546875 7.910156 0.109375 7.609375 0.109375 C 7.179688 0.109375 6.78125 0.0078125 6.40625 -0.1875 C 6.03125 -0.394531 5.738281 -0.71875 5.53125 -1.15625 C 5.320312 -0.71875 5.023438 -0.394531 4.640625 -0.1875 C 4.265625 0.0078125 3.863281 0.109375 3.4375 0.109375 C 3.132812 0.109375 2.835938 0.0546875 2.546875 -0.046875 C 2.253906 -0.160156 1.992188 -0.316406 1.765625 -0.515625 C 1.546875 -0.722656 1.363281 -0.976562 1.21875 -1.28125 C 1.082031 -1.582031 1.015625 -1.921875 1.015625 -2.296875 L 1.015625 -7.78125 L 2.09375 -7.78125 L 2.09375 -2.296875 C 2.09375 -2.066406 2.132812 -1.859375 2.21875 -1.671875 C 2.300781 -1.492188 2.410156 -1.34375 2.546875 -1.21875 C 2.679688 -1.101562 2.832031 -1.015625 3 -0.953125 C 3.175781 -0.898438 3.351562 -0.875 3.53125 -0.875 C 3.707031 -0.875 3.882812 -0.898438 4.0625 -0.953125 C 4.238281 -1.015625 4.394531 -1.101562 4.53125 -1.21875 C 4.664062 -1.34375 4.773438 -1.492188 4.859375 -1.671875 C 4.941406 -1.859375 4.984375 -2.066406 4.984375 -2.296875 L 4.984375 -7.78125 L 6.0625 -7.78125 Z M 6.0625 -2.296875 "/></g></g></g><g fill="#000000" fill-opacity="1"><g transform="translate(206.283129, 14.224915)"><g><path d="M 0.75 -10.5 C 0.75 -10.726562 0.828125 -10.921875 0.984375 -11.078125 C 1.140625 -11.234375 1.332031 -11.3125 1.5625 -11.3125 C 1.789062 -11.3125 1.976562 -11.234375 2.125 -11.078125 C 2.28125 -10.921875 2.359375 -10.726562 2.359375 -10.5 C 2.359375 -10.269531 2.28125 -10.078125 2.125 -9.921875 C 1.976562 -9.773438 1.789062 -9.703125 1.5625 -9.703125 C 1.332031 -9.703125 1.140625 -9.773438 0.984375 -9.921875 C 0.828125 -10.078125 0.75 -10.269531 0.75 -10.5 Z M 1.015625 0 L 1.015625 -7.78125 L 2.09375 -7.78125 L 2.09375 0 Z M 1.015625 0 "/></g></g></g><g fill="#000000" fill-opacity="1"><g transform="translate(209.395085, 14.224915)"><g><path d="M 4.4375 -0.140625 C 4.039062 0.0234375 3.648438 0.109375 3.265625 0.109375 C 3.023438 0.109375 2.796875 0.0703125 2.578125 0 C 2.359375 -0.0820312 2.171875 -0.207031 2.015625 -0.375 C 1.859375 -0.539062 1.726562 -0.757812 1.625 -1.03125 C 1.53125 -1.300781 1.484375 -1.625 1.484375 -2 L 1.484375 -6.796875 L 0.3125 -6.796875 L 0.3125 -7.78125 L 1.484375 -7.78125 L 1.484375 -9.796875 L 2.5625 -10.109375 L 2.5625 -7.78125 L 4.4375 -7.78125 L 4.4375 -6.796875 L 2.5625 -6.796875 L 2.5625 -2 C 2.5625 -1.59375 2.644531 -1.300781 2.8125 -1.125 C 2.976562 -0.957031 3.191406 -0.875 3.453125 -0.875 C 3.722656 -0.875 4.050781 -0.957031 4.4375 -1.125 Z M 4.4375 -0.140625 "/></g></g></g><g fill="#000000" fill-opacity="1"><g transform="translate(214.140803, 14.224915)"><g><path d="M 1.015625 0 L 1.015625 -11.671875 L 2.09375 -11.671875 L 2.09375 -6.703125 C 2.382812 -7.117188 2.722656 -7.421875 3.109375 -7.609375 C 3.503906 -7.796875 3.90625 -7.890625 4.3125 -7.890625 C 4.632812 -7.890625 4.945312 -7.828125 5.25 -7.703125 C 5.550781 -7.578125 5.816406 -7.394531 6.046875 -7.15625 C 6.273438 -6.925781 6.457031 -6.640625 6.59375 -6.296875 C 6.738281 -5.953125 6.8125 -5.554688 6.8125 -5.109375 L 6.8125 0 L 5.734375 0 L 5.734375 -5.109375 C 5.734375 -5.421875 5.6875 -5.6875 5.59375 -5.90625 C 5.507812 -6.132812 5.394531 -6.320312 5.25 -6.46875 C 5.101562 -6.613281 4.9375 -6.722656 4.75 -6.796875 C 4.5625 -6.867188 4.363281 -6.90625 4.15625 -6.90625 C 3.90625 -6.90625 3.65625 -6.851562 3.40625 -6.75 C 3.164062 -6.65625 2.945312 -6.515625 2.75 -6.328125 C 2.5625 -6.148438 2.40625 -5.929688 2.28125 -5.671875 C 2.15625 -5.410156 2.09375 -5.109375 2.09375 -4.765625 L 2.09375 0 Z M 1.015625 0 "/></g></g></g><g fill="#000000" fill-opacity="1"><g transform="translate(221.967359, 14.224915)"><g/></g></g><g fill="#000000" fill-opacity="1"><g transform="translate(226.946479, 14.224915)"><g><path d="M 6.75 -1.484375 C 6.613281 -1.210938 6.441406 -0.976562 6.234375 -0.78125 C 6.023438 -0.582031 5.796875 -0.414062 5.546875 -0.28125 C 5.304688 -0.144531 5.046875 -0.046875 4.765625 0.015625 C 4.484375 0.078125 4.203125 0.109375 3.921875 0.109375 C 3.523438 0.109375 3.140625 0.046875 2.765625 -0.078125 C 2.390625 -0.203125 2.054688 -0.394531 1.765625 -0.65625 C 1.472656 -0.914062 1.234375 -1.234375 1.046875 -1.609375 C 0.867188 -1.992188 0.78125 -2.441406 0.78125 -2.953125 L 0.78125 -4.671875 C 0.78125 -5.210938 0.867188 -5.679688 1.046875 -6.078125 C 1.222656 -6.472656 1.453125 -6.804688 1.734375 -7.078125 C 2.015625 -7.347656 2.335938 -7.550781 2.703125 -7.6875 C 3.066406 -7.820312 3.441406 -7.890625 3.828125 -7.890625 C 4.210938 -7.890625 4.585938 -7.820312 4.953125 -7.6875 C 5.328125 -7.550781 5.65625 -7.347656 5.9375 -7.078125 C 6.21875 -6.804688 6.445312 -6.472656 6.625 -6.078125 C 6.800781 -5.679688 6.890625 -5.210938 6.890625 -4.671875 C 6.890625 -4.179688 6.765625 -3.828125 6.515625 -3.609375 C 6.273438 -3.398438 5.941406 -3.296875 5.515625 -3.296875 L 1.875 -3.296875 L 1.875 -2.953125 C 1.875 -2.609375 1.929688 -2.304688 2.046875 -2.046875 C 2.160156 -1.785156 2.3125 -1.566406 2.5 -1.390625 C 2.695312 -1.222656 2.914062 -1.09375 3.15625 -1 C 3.40625 -0.914062 3.660156 -0.875 3.921875 -0.875 C 4.316406 -0.875 4.691406 -0.972656 5.046875 -1.171875 C 5.398438 -1.378906 5.660156 -1.679688 5.828125 -2.078125 Z M 1.875 -4.28125 L 5.4375 -4.28125 C 5.6875 -4.28125 5.8125 -4.410156 5.8125 -4.671875 C 5.8125 -5.046875 5.753906 -5.367188 5.640625 -5.640625 C 5.523438 -5.921875 5.375 -6.15625 5.1875 -6.34375 C 5 -6.53125 4.785156 -6.671875 4.546875 -6.765625 C 4.316406 -6.859375 4.078125 -6.90625 3.828125 -6.90625 C 3.578125 -6.90625 3.332031 -6.859375 3.09375 -6.765625 C 2.863281 -6.671875 2.65625 -6.53125 2.46875 -6.34375 C 2.289062 -6.15625 2.144531 -5.921875 2.03125 -5.640625 C 1.925781 -5.367188 1.875 -5.046875 1.875 -4.671875 Z M 1.875 -4.28125 "/></g></g></g><g fill="#000000" fill-opacity="1"><g transform="translate(234.461834, 14.224915)"><g><path d="M 5.578125 -0.921875 C 5.273438 -0.554688 4.9375 -0.289062 4.5625 -0.125 C 4.195312 0.03125 3.828125 0.109375 3.453125 0.109375 C 3.117188 0.109375 2.796875 0.046875 2.484375 -0.078125 C 2.171875 -0.210938 1.894531 -0.40625 1.65625 -0.65625 C 1.414062 -0.914062 1.222656 -1.222656 1.078125 -1.578125 C 0.929688 -1.941406 0.859375 -2.359375 0.859375 -2.828125 L 0.859375 -4.953125 C 0.859375 -5.421875 0.929688 -5.832031 1.078125 -6.1875 C 1.222656 -6.550781 1.414062 -6.859375 1.65625 -7.109375 C 1.894531 -7.367188 2.171875 -7.5625 2.484375 -7.6875 C 2.796875 -7.820312 3.117188 -7.890625 3.453125 -7.890625 C 3.828125 -7.890625 4.195312 -7.804688 4.5625 -7.640625 C 4.9375 -7.484375 5.273438 -7.222656 5.578125 -6.859375 L 5.6875 -7.78125 L 6.65625 -7.78125 L 6.65625 0 L 5.671875 0 Z M 5.578125 -4.8125 C 5.578125 -5.15625 5.519531 -5.457031 5.40625 -5.71875 C 5.300781 -5.976562 5.160156 -6.195312 4.984375 -6.375 C 4.804688 -6.550781 4.601562 -6.679688 4.375 -6.765625 C 4.15625 -6.859375 3.925781 -6.90625 3.6875 -6.90625 C 3.46875 -6.90625 3.25 -6.863281 3.03125 -6.78125 C 2.820312 -6.707031 2.632812 -6.585938 2.46875 -6.421875 C 2.3125 -6.253906 2.1875 -6.050781 2.09375 -5.8125 C 2 -5.570312 1.953125 -5.285156 1.953125 -4.953125 L 1.953125 -2.828125 C 1.953125 -2.492188 2 -2.207031 2.09375 -1.96875 C 2.1875 -1.726562 2.3125 -1.523438 2.46875 -1.359375 C 2.632812 -1.191406 2.820312 -1.066406 3.03125 -0.984375 C 3.25 -0.910156 3.46875 -0.875 3.6875 -0.875 C 3.925781 -0.875 4.15625 -0.914062 4.375 -1 C 4.601562 -1.09375 4.804688 -1.226562 4.984375 -1.40625 C 5.160156 -1.582031 5.300781 -1.800781 5.40625 -2.0625 C 5.519531 -2.320312 5.578125 -2.625 5.578125 -2.96875 Z M 5.578125 -4.8125 "/></g></g></g><g fill="#000000" fill-opacity="1"><g transform="translate(242.132789, 14.224915)"><g><path d="M 5.421875 -6.609375 C 5.222656 -6.660156 4.9375 -6.722656 4.5625 -6.796875 C 4.195312 -6.867188 3.820312 -6.90625 3.4375 -6.90625 C 3.21875 -6.90625 3.003906 -6.890625 2.796875 -6.859375 C 2.597656 -6.828125 2.421875 -6.769531 2.265625 -6.6875 C 2.109375 -6.601562 1.984375 -6.488281 1.890625 -6.34375 C 1.796875 -6.207031 1.75 -6.039062 1.75 -5.84375 C 1.75 -5.625 1.789062 -5.4375 1.875 -5.28125 C 1.957031 -5.132812 2.078125 -5.007812 2.234375 -4.90625 C 2.390625 -4.800781 2.570312 -4.710938 2.78125 -4.640625 C 2.988281 -4.566406 3.207031 -4.5 3.4375 -4.4375 C 3.71875 -4.363281 4.003906 -4.273438 4.296875 -4.171875 C 4.585938 -4.066406 4.847656 -3.925781 5.078125 -3.75 C 5.316406 -3.582031 5.507812 -3.363281 5.65625 -3.09375 C 5.800781 -2.820312 5.875 -2.476562 5.875 -2.0625 C 5.875 -1.675781 5.800781 -1.34375 5.65625 -1.0625 C 5.519531 -0.789062 5.320312 -0.566406 5.0625 -0.390625 C 4.8125 -0.210938 4.515625 -0.0820312 4.171875 0 C 3.835938 0.0703125 3.476562 0.109375 3.09375 0.109375 C 2.65625 0.109375 2.207031 0.0625 1.75 -0.03125 C 1.300781 -0.125 0.859375 -0.253906 0.421875 -0.421875 L 0.609375 -1.40625 C 0.753906 -1.34375 0.921875 -1.28125 1.109375 -1.21875 C 1.304688 -1.15625 1.515625 -1.097656 1.734375 -1.046875 C 1.953125 -0.992188 2.179688 -0.953125 2.421875 -0.921875 C 2.660156 -0.890625 2.894531 -0.875 3.125 -0.875 C 3.351562 -0.875 3.566406 -0.890625 3.765625 -0.921875 C 3.972656 -0.960938 4.148438 -1.03125 4.296875 -1.125 C 4.453125 -1.21875 4.570312 -1.34375 4.65625 -1.5 C 4.75 -1.65625 4.796875 -1.84375 4.796875 -2.0625 C 4.796875 -2.269531 4.75 -2.441406 4.65625 -2.578125 C 4.5625 -2.722656 4.4375 -2.847656 4.28125 -2.953125 C 4.132812 -3.066406 3.960938 -3.160156 3.765625 -3.234375 C 3.566406 -3.304688 3.363281 -3.375 3.15625 -3.4375 C 2.863281 -3.519531 2.570312 -3.613281 2.28125 -3.71875 C 1.988281 -3.820312 1.71875 -3.957031 1.46875 -4.125 C 1.226562 -4.300781 1.03125 -4.523438 0.875 -4.796875 C 0.726562 -5.066406 0.65625 -5.414062 0.65625 -5.84375 C 0.65625 -6.226562 0.734375 -6.550781 0.890625 -6.8125 C 1.054688 -7.082031 1.269531 -7.296875 1.53125 -7.453125 C 1.789062 -7.609375 2.082031 -7.71875 2.40625 -7.78125 C 2.738281 -7.851562 3.082031 -7.890625 3.4375 -7.890625 C 3.820312 -7.890625 4.203125 -7.859375 4.578125 -7.796875 C 4.960938 -7.734375 5.304688 -7.660156 5.609375 -7.578125 Z M 5.421875 -6.609375 "/></g></g></g><g fill="#000000" fill-opacity="1"><g transform="translate(248.49672, 14.224915)"><g><path d="M 6.75 -1.484375 C 6.613281 -1.210938 6.441406 -0.976562 6.234375 -0.78125 C 6.023438 -0.582031 5.796875 -0.414062 5.546875 -0.28125 C 5.304688 -0.144531 5.046875 -0.046875 4.765625 0.015625 C 4.484375 0.078125 4.203125 0.109375 3.921875 0.109375 C 3.523438 0.109375 3.140625 0.046875 2.765625 -0.078125 C 2.390625 -0.203125 2.054688 -0.394531 1.765625 -0.65625 C 1.472656 -0.914062 1.234375 -1.234375 1.046875 -1.609375 C 0.867188 -1.992188 0.78125 -2.441406 0.78125 -2.953125 L 0.78125 -4.671875 C 0.78125 -5.210938 0.867188 -5.679688 1.046875 -6.078125 C 1.222656 -6.472656 1.453125 -6.804688 1.734375 -7.078125 C 2.015625 -7.347656 2.335938 -7.550781 2.703125 -7.6875 C 3.066406 -7.820312 3.441406 -7.890625 3.828125 -7.890625 C 4.210938 -7.890625 4.585938 -7.820312 4.953125 -7.6875 C 5.328125 -7.550781 5.65625 -7.347656 5.9375 -7.078125 C 6.21875 -6.804688 6.445312 -6.472656 6.625 -6.078125 C 6.800781 -5.679688 6.890625 -5.210938 6.890625 -4.671875 C 6.890625 -4.179688 6.765625 -3.828125 6.515625 -3.609375 C 6.273438 -3.398438 5.941406 -3.296875 5.515625 -3.296875 L 1.875 -3.296875 L 1.875 -2.953125 C 1.875 -2.609375 1.929688 -2.304688 2.046875 -2.046875 C 2.160156 -1.785156 2.3125 -1.566406 2.5 -1.390625 C 2.695312 -1.222656 2.914062 -1.09375 3.15625 -1 C 3.40625 -0.914062 3.660156 -0.875 3.921875 -0.875 C 4.316406 -0.875 4.691406 -0.972656 5.046875 -1.171875 C 5.398438 -1.378906 5.660156 -1.679688 5.828125 -2.078125 Z M 1.875 -4.28125 L 5.4375 -4.28125 C 5.6875 -4.28125 5.8125 -4.410156 5.8125 -4.671875 C 5.8125 -5.046875 5.753906 -5.367188 5.640625 -5.640625 C 5.523438 -5.921875 5.375 -6.15625 5.1875 -6.34375 C 5 -6.53125 4.785156 -6.671875 4.546875 -6.765625 C 4.316406 -6.859375 4.078125 -6.90625 3.828125 -6.90625 C 3.578125 -6.90625 3.332031 -6.859375 3.09375 -6.765625 C 2.863281 -6.671875 2.65625 -6.53125 2.46875 -6.34375 C 2.289062 -6.15625 2.144531 -5.921875 2.03125 -5.640625 C 1.925781 -5.367188 1.875 -5.046875 1.875 -4.671875 Z M 1.875 -4.28125 "/></g></g></g></g></g><g transform="matrix(1, 0, 0, 1, 65, 65)"><g clip-path="url(#9bcc32ae29)"><g clip-path="url(#91fe539295)"><g fill="#0081cc" fill-opacity="1"><g transform="translate(0.721922, 74.764864)"><g><path d="M 26.578125 -47.53125 C 23.203125 -47.125 20.269531 -45.34375 17.78125 -42.1875 C 14.945312 -38.5625 13.53125 -34.179688 13.53125 -29.046875 C 13.53125 -23.941406 14.945312 -19.582031 17.78125 -15.96875 C 20.269531 -12.78125 23.203125 -10.984375 26.578125 -10.578125 L 26.578125 -0.046875 C 19.421875 -0.316406 13.273438 -3.148438 8.140625 -8.546875 C 2.710938 -14.222656 0 -21.085938 0 -29.140625 C 0 -37.179688 2.710938 -44.054688 8.140625 -49.765625 C 13.273438 -55.140625 19.421875 -57.960938 26.578125 -58.234375 Z M 38.328125 -42.1875 C 35.648438 -45.613281 32.4375 -47.421875 28.6875 -47.609375 L 28.6875 -58.265625 C 35.957031 -58.023438 42.195312 -55.191406 47.40625 -49.765625 C 50.050781 -46.972656 52.050781 -43.90625 53.40625 -40.5625 L 41.890625 -34.890625 C 41.222656 -37.585938 40.035156 -40.019531 38.328125 -42.1875 Z M 52.546875 -15.765625 C 51.253906 -13.171875 49.539062 -10.765625 47.40625 -8.546875 C 42.195312 -3.085938 35.957031 -0.238281 28.6875 0 L 28.6875 -10.5 C 32.4375 -10.6875 35.648438 -12.507812 38.328125 -15.96875 C 39.648438 -17.664062 40.664062 -19.53125 41.375 -21.5625 Z M 52.546875 -15.765625 "/></g></g></g></g></g></g><g transform="matrix(1, 0, 0, 1, 215, 66)"><g clip-path="url(#2e58b1ff98)"><g clip-path="url(#9ea8b94719)"><g fill="#004aad" fill-opacity="1"><g transform="translate(0.384401, 74.772523)"><g><path d="M 13.203125 0 L 0 0 L 0 -58.234375 L 13.203125 -58.234375 Z M 43.1875 -10.734375 L 43.1875 -0.046875 L 15.96875 -0.046875 L 15.96875 -10.734375 Z M 43.1875 -10.734375 "/></g></g></g></g></g></g><g transform="matrix(1, 0, 0, 1, 269, 66)"><g clip-path="url(#3286e0f869)"><g fill="#000000" fill-opacity="1"><g transform="translate(1.104033, 74.772523)"><g><path d="M 13.203125 0 L 0 0 L 0 -58.234375 L 13.203125 -58.234375 Z M 13.203125 0 "/></g></g></g></g></g></svg>
