<svg xmlns="http://www.w3.org/2000/svg" xmlns:xlink="http://www.w3.org/1999/xlink" width="500" zoomAndPan="magnify" viewBox="0 0 375 374.999991" height="500" preserveAspectRatio="xMidYMid meet" version="1.0"><defs><g/><clipPath id="5433fd4312"><rect x="0" width="274" y="0" height="213"/></clipPath><clipPath id="795e12be38"><rect x="0" width="274" y="0" height="213"/></clipPath><clipPath id="00c401cba0"><rect x="0" width="274" y="0" height="213"/></clipPath></defs><g transform="matrix(1, 0, 0, 1, 34, 114)"><g clip-path="url(#5433fd4312)"><g fill="#0081cc" fill-opacity="1"><g transform="translate(9.19245, 157.847282)"><g><path d="M -5.546875 -149.703125 L 261.015625 -149.703125 L 166.96875 9.59375 C 158.019531 -5.613281 149.101562 -20.539062 140.21875 -35.1875 C 131.332031 -49.832031 122.476562 -64.6875 113.65625 -79.75 L 108.96875 -75.28125 L 124.109375 -49.6875 L 88.5 9.59375 Z M -5.546875 -149.703125 "/></g></g></g></g></g><g transform="matrix(1, 0, 0, 1, 53, 114)"><g clip-path="url(#795e12be38)"><g fill="#004aad" fill-opacity="1"><g transform="translate(9.466403, 157.861468)"><g><path d="M -5.546875 -149.703125 L 261.015625 -149.703125 L 166.96875 9.59375 C 158.019531 -5.613281 149.101562 -20.539062 140.21875 -35.1875 C 131.332031 -49.832031 122.476562 -64.6875 113.65625 -79.75 L 108.96875 -75.28125 L 124.109375 -49.6875 L 88.5 9.59375 Z M -5.546875 -149.703125 "/></g></g></g></g></g><g transform="matrix(1, 0, 0, 1, 72, 114)"><g clip-path="url(#00c401cba0)"><g fill="#000000" fill-opacity="1"><g transform="translate(10.409423, 157.861468)"><g><path d="M -5.546875 -149.703125 L 261.015625 -149.703125 L 166.96875 9.59375 C 158.019531 -5.613281 149.101562 -20.539062 140.21875 -35.1875 C 131.332031 -49.832031 122.476562 -64.6875 113.65625 -79.75 L 108.96875 -75.28125 L 124.109375 -49.6875 L 88.5 9.59375 Z M -5.546875 -149.703125 "/></g></g></g></g></g></svg>
